<!-- A sprite that contains all SVG files for lekoarts.de -->
<svg xmlns="http://www.w3.org/2000/svg" xmlns:xlink="http://www.w3.org/1999/xlink">
  <symbol id="developer-tools" viewBox="0 0 50 50" fill="none" xmlns="http://www.w3.org/2000/svg"><rect width="50" height="50" rx="6" fill="var(--icon-bg, #f7feebff)"/><path fill="#7AD28D" d="M9 10h30v23H9z"/><path d="M40.042 6H9.958C7.772 6 6 7.763 6 9.937v30.126C6 42.237 7.772 44 9.958 44h30.084C42.228 44 44 42.237 44 40.063V9.937C44 7.763 42.228 6 40.042 6zm-18.65 14.136l-.068.067-.078.056c-.437.313-.937.677-1.526 1.115-.645.478-1.21.9-1.73 1.288-.602.448-1.182.878-1.725 1.28-.549.404-1.068.782-1.542 1.122l-.093.066-.103.048a2.83 2.83 0 01-1.18.271c-.615 0-1.163-.211-1.584-.612a2.116 2.116 0 01-.668-1.573c0-.546.179-1.064.53-1.54l.105-.142.14-.105c.364-.271.794-.589 1.278-.942.49-.36.977-.721 1.446-1.075a130.75 130.75 0 011.475-1.097l.02-.015c-.459-.35-.94-.722-1.429-1.105-.503-.393-.996-.774-1.464-1.133a45.575 45.575 0 01-1.204-.947l-.092-.075-.075-.091c-.412-.504-.62-1.056-.62-1.642 0-.604.223-1.146.647-1.568a2.224 2.224 0 011.604-.644c.313 0 .648.07 1.026.214l.097.037.09.053c.126.076.304.203.759.578.305.251.681.546 1.121.878.457.346.947.727 1.456 1.131.494.394.968.762 1.41 1.095.463.352.861.659 1.183.914l.611.487c.8.628.967 1.366.967 1.874 0 .434-.135 1.086-.784 1.732zm15.242 9.622c-.343.375-.817.639-1.41.787l-.142.035H25.057l-.054-.005c-.898-.081-1.414-.485-1.689-.81-.37-.438-.564-.95-.564-1.479 0-.576.222-1.112.643-1.55.414-.43.985-.678 1.698-.74l.05-.004h10.03l.149.04c.61.158 1.084.46 1.411.894.322.425.484.883.484 1.36a2.16 2.16 0 01-.581 1.472z" fill="#042024"/></symbol>
  <symbol id="general" viewBox="0 0 50 50" fill="none" xmlns="http://www.w3.org/2000/svg"><rect width="50" height="50" rx="6" fill="var(--icon-bg, #FAF9FB)"/><path fill-rule="evenodd" clip-rule="evenodd" d="M10.47 7.108C15.053 8.861 22.066 9.385 25 9.428v20.235c-.605-.3-2.18-.902-3.632-.902.512-2.148 1.006-7.27-1.118-10.569-1.257-.258-4.582-.464-7.824.773.932.946 3.772 2.836 7.684 2.836.56 1.074 1.453 4.227.56 8.248-.048.258.139.774 1.256.774 1.398 0 2.515.386 2.515 2.449v4.253c-.506.467-2.522 1.521-6.56 2.043-2.065-3.936-5.511-6.37-7.41-7.199.605-2.105.894-7.63-2.795-12.888-3.688-5.258.326-10.44 2.794-12.373zm8.25 34.37c1.208-.453 3.625-1.118 6.28-1.118V45c-2.682 0-4.843-.43-5.588-.773a14.527 14.527 0 00-.692-2.75zm20.81-34.37C34.946 8.861 27.933 9.385 25 9.428v20.235c.605-.3 2.18-.902 3.632-.902-.512-2.148-1.006-7.27 1.118-10.569 1.257-.258 4.582-.464 7.824.773-.932.946-3.773 2.836-7.684 2.836-.56 1.074-1.453 4.227-.56 8.248.047.258-.139.774-1.256.774-1.398 0-2.515.386-2.515 2.449v4.253c.506.467 2.522 1.521 6.56 2.043 2.065-3.936 5.511-6.37 7.41-7.199-.605-2.105-.894-7.63 2.794-12.888 3.689-5.258-.325-10.44-2.794-12.373zm-8.25 34.37c-1.209-.453-3.625-1.118-6.28-1.118V45c2.682 0 4.843-.43 5.588-.773.146-.973.384-1.89.692-2.75z" fill="#2563eb"/></symbol>
  <symbol id="web-development" viewBox="0 0 50 50" fill="none" xmlns="http://www.w3.org/2000/svg"><rect width="50" height="50" rx="6" fill="var(--icon-bg, #FBF7E7)"/><path d="M44 6H6v38h38V6z" fill="#F7DF1E"/><path d="M31.526 35.688c.766 1.25 1.762 2.168 3.523 2.168 1.48 0 2.425-.74 2.425-1.761 0-1.225-.971-1.658-2.6-2.37l-.893-.384c-2.577-1.098-4.288-2.473-4.288-5.38 0-2.678 2.04-4.717 5.23-4.717 2.27 0 3.902.79 5.078 2.86l-2.78 1.785c-.613-1.098-1.273-1.53-2.299-1.53-1.046 0-1.709.663-1.709 1.53 0 1.07.664 1.505 2.196 2.168l.893.382c3.034 1.302 4.747 2.628 4.747 5.61 0 3.215-2.526 4.976-5.918 4.976-3.316 0-5.458-1.58-6.507-3.651l2.902-1.686zm-12.614.31c.561.994 1.071 1.836 2.298 1.836 1.173 0 1.913-.46 1.913-2.244V23.448h3.571v12.19c0 3.698-2.168 5.38-5.332 5.38-2.859 0-4.515-1.48-5.357-3.261l2.907-1.76z" fill="#000"/></symbol>
  <symbol id="react" viewBox="0 0 50 50" fill="none" xmlns="http://www.w3.org/2000/svg"><rect width="50" height="50" rx="6" fill="var(--icon-bg, #ECFBFF)"/><path fill-rule="evenodd" clip-rule="evenodd" d="M36.014 18.555c4.833 1.48 7.986 3.87 7.986 6.39 0 2.513-3.137 4.901-7.94 6.382 1.124 4.917.636 8.833-1.54 10.09-.512.294-1.1.434-1.751.434-2.13 0-4.919-1.505-7.738-4.126-2.82 2.637-5.608 4.157-7.738 4.157-.65 0-1.24-.14-1.743-.434-2.184-1.257-2.68-5.18-1.564-10.113C9.152 29.854 6 27.465 6 24.945c0-2.513 3.137-4.894 7.955-6.383-1.123-4.916-.635-8.833 1.541-10.089.511-.295 1.1-.434 1.75-.434V8.03c2.13 0 4.92 1.505 7.739 4.126C27.803 9.52 30.591 8 32.721 8v.008c.64 0 1.226.14 1.728.434 2.184 1.256 2.68 5.18 1.564 10.113zm-3.3-8.826c-1.61.005-3.977 1.292-6.498 3.638a37.815 37.815 0 013.222 3.877c1.743.186 3.4.473 4.919.845.17-.783.31-1.55.395-2.28.356-2.962-.101-5.265-1.154-5.87-.24-.132-.527-.202-.883-.202V9.73zm-8.961 3.645C21.228 11.04 18.85 9.76 17.247 9.76v.008c-.357 0-.659.062-.891.202-1.046.612-1.495 2.916-1.131 5.878.093.721.225 1.474.403 2.25a36.126 36.126 0 014.926-.854 36.62 36.62 0 013.199-3.87zm9.117 9.461a34.94 34.94 0 001.045-3.063 34.915 34.915 0 00-3.175-.612c.379.589.759 1.194 1.115 1.814.364.62.697 1.241 1.015 1.861zM28.5 30.995a41.294 41.294 0 003.47-6.057 40.458 40.458 0 00-1.611-3.086 42.749 42.749 0 00-1.875-2.947 40.26 40.26 0 00-6.986.008 41.294 41.294 0 00-3.47 6.056 40.458 40.458 0 001.611 3.087 42.749 42.749 0 001.875 2.947 40.26 40.26 0 006.986-.008zm5.437-.884a33.23 33.23 0 00-1.069-3.087c-.317.62-.65 1.249-1.006 1.87-.357.627-.736 1.24-1.116 1.837a34.717 34.717 0 003.191-.62zm-11.076 2.706a31.964 31.964 0 002.154 2.482 30.252 30.252 0 002.13-2.482c-.705.04-1.426.055-2.154.055-.72 0-1.433-.024-2.13-.055zm-6.785-2.698c1.015.248 2.076.45 3.176.612-.38-.59-.752-1.194-1.116-1.814-.364-.62-.697-1.241-1.014-1.862a34.94 34.94 0 00-1.046 3.064zM27.13 17.074a31.963 31.963 0 00-2.153-2.482 30.253 30.253 0 00-2.13 2.481A39.285 39.285 0 0125 17.02c.72 0 1.433.023 2.13.055zm-9 3.924c.356-.629.736-1.241 1.115-1.838a37.56 37.56 0 00-3.191.612c.294 1.008.65 2.048 1.069 3.087.317-.62.65-1.241 1.007-1.861zM7.72 24.945c0 1.217 1.773 2.753 4.515 3.924.674.287 1.402.55 2.169.791a36.761 36.761 0 011.72-4.7 37.28 37.28 0 01-1.743-4.722c-.752.24-1.48.496-2.146.783-2.742 1.163-4.515 2.706-4.515 3.924zm7.528 9.135c-.356 2.963.101 5.266 1.154 5.871.233.132.527.202.876.21 1.61 0 3.98-1.288 6.506-3.638a37.815 37.815 0 01-3.222-3.877 37.48 37.48 0 01-4.919-.846c-.17.784-.31 1.551-.395 2.28zm18.396 5.84c1.046-.613 1.495-2.916 1.131-5.878a21.75 21.75 0 00-.403-2.257 36.14 36.14 0 01-4.926.853 36.62 36.62 0 01-3.199 3.87c2.525 2.334 4.903 3.614 6.506 3.614.357 0 .659-.062.891-.202zm1.968-10.268c.75-.24 1.479-.496 2.145-.783 2.742-1.163 4.516-2.707 4.524-3.924 0-1.218-1.774-2.753-4.516-3.924-.682-.287-1.41-.55-2.177-.791a36.762 36.762 0 01-1.72 4.7 37.266 37.266 0 011.743 4.722zm-7.08-4.707a3.542 3.542 0 01-3.54 3.544 3.542 3.542 0 01-3.54-3.544 3.542 3.542 0 013.54-3.544 3.542 3.542 0 013.54 3.544z" fill="#61DAFB"/></symbol>
  <symbol id="programming" xmlns="http://www.w3.org/2000/svg" fill="none" viewBox="0 0 50 50"><rect width="50" height="50" fill="var(--icon-bg, #FAF9FB)" rx="6"/><path stroke="currentColor" stroke-linecap="round" stroke-linejoin="round" stroke-width="4" d="m31 37 12-12-12-12M19 13 7 25l12 12"/></symbol>
  <symbol id="logo" fill="none" xmlns="http://www.w3.org/2000/svg"><path fillRule="evenodd" clipRule="evenodd" d="M17.647 0.427197C35.7353 7.34621 63.4191 9.41513 75 9.58472L75 89.4586C72.6103 88.2715 66.397 85.8974 60.6618 85.8974C62.6838 77.4182 64.6323 57.2038 56.25 44.1798C51.2868 43.1623 38.1618 42.3483 25.3676 47.2323C29.0441 50.9631 40.2573 58.4248 55.6985 58.4248C57.9044 62.6644 61.4338 75.1119 57.9044 90.9849C57.7206 92.0024 58.4559 94.0374 62.8676 94.0374C68.3823 94.0374 72.7941 95.5636 72.7941 103.704V120.492C70.7959 122.336 62.8375 126.498 46.8965 128.56C38.7469 113.023 25.1443 103.412 17.6471 100.142C20.0368 91.8328 21.1765 70.0243 6.61764 49.2673C-7.94118 28.5103 7.9044 8.05846 17.647 0.427197ZM75 89.4586L75 9.58472C86.5809 9.41513 114.265 7.34621 132.353 0.427197C142.096 8.05846 157.941 28.5103 143.382 49.2673C128.824 70.0243 129.963 91.8328 132.353 100.142C124.856 103.412 111.253 113.023 103.104 128.56C87.1625 126.498 79.2041 122.336 77.2059 120.492V103.704C77.2059 95.5636 81.6177 94.0374 87.1324 94.0374C91.5441 94.0374 92.2794 92.0024 92.0956 90.9849C88.5662 75.1119 92.0956 62.6644 94.3015 58.4248C109.743 58.4248 120.956 50.9631 124.632 47.2323C111.838 42.3483 98.7132 43.1623 93.75 44.1798C85.3677 57.2038 87.3162 77.4182 89.3382 85.8974C83.603 85.8974 77.3897 88.2715 75 89.4586ZM50.2092 136.096C54.9807 134.31 64.5209 131.685 75 131.685L75 150C64.4118 150 55.8823 148.304 52.9412 146.947C52.3649 143.108 51.4253 139.489 50.2092 136.096ZM75 131.685L75 150C85.5882 150 94.1177 148.304 97.0588 146.947C97.6351 143.108 98.5747 139.489 99.7908 136.096C95.0193 134.31 85.4791 131.685 75 131.685Z" fill="currentColor"/></symbol>
  <symbol id="pause" viewBox="0 0 24 24" fill="currentColor"><path fill-rule="evenodd" d="M6.75 5.25a.75.75 0 01.75-.75H9a.75.75 0 01.75.75v13.5a.75.75 0 01-.75.75H7.5a.75.75 0 01-.75-.75V5.25zm7.5 0A.75.75 0 0115 4.5h1.5a.75.75 0 01.75.75v13.5a.75.75 0 01-.75.75H15a.75.75 0 01-.75-.75V5.25z" clip-rule="evenodd" 
  /></symbol>
  <symbol id="play" viewBox="0 0 24 24" fill="currentColor"><path fill-rule="evenodd" d="M4.5 5.653c0-1.426 1.529-2.33 2.779-1.643l11.54 6.348c1.295.712 1.295 2.573 0 3.285L7.28 19.991c-1.25.687-2.779-.217-2.779-1.643V5.653z" clip-rule="evenodd" 
  /></symbol>
  <symbol id="close" viewBox="0 0 20 20" fill="currentColor"><path d="M6.28 5.22a.75.75 0 00-1.06 1.06L8.94 10l-3.72 3.72a.75.75 0 101.06 1.06L10 11.06l3.72 3.72a.75.75 0 101.06-1.06L11.06 10l3.72-3.72a.75.75 0 00-1.06-1.06L10 8.94 6.28 5.22z" 
  /></symbol>
  <symbol id="check" viewBox="0 0 20 20" fill="currentColor"><path fill-rule="evenodd" d="M16.403 12.652a3 3 0 000-5.304 3 3 0 00-3.75-3.751 3 3 0 00-5.305 0 3 3 0 00-3.751 3.75 3 3 0 000 5.305 3 3 0 003.75 3.751 3 3 0 005.305 0 3 3 0 003.751-3.75zm-2.546-4.46a.75.75 0 00-1.214-.883l-3.483 4.79-1.88-1.88a.75.75 0 10-1.06 1.061l2.5 2.5a.75.75 0 001.137-.089l4-5.5z" clip-rule="evenodd" 
  /></symbol>
  <symbol id="info" viewBox="0 0 20 20" fill="currentColor"><path fill-rule="evenodd" d="M19 10.5a8.5 8.5 0 11-17 0 8.5 8.5 0 0117 0zM8.25 9.75A.75.75 0 019 9h.253a1.75 1.75 0 011.709 2.13l-.46 2.066a.25.25 0 00.245.304H11a.75.75 0 010 1.5h-.253a1.75 1.75 0 01-1.709-2.13l.46-2.066a.25.25 0 00-.245-.304H9a.75.75 0 01-.75-.75zM10 7a1 1 0 100-2 1 1 0 000 2z" clip-rule="evenodd" /></symbol>
  <symbol id="warning" viewBox="0 0 20 20" fill="currentColor"><path fill-rule="evenodd" d="M8.485 2.495c.673-1.167 2.357-1.167 3.03 0l6.28 10.875c.673 1.167-.17 2.625-1.516 2.625H3.72c-1.347 0-2.189-1.458-1.515-2.625L8.485 2.495zM10 5a.75.75 0 01.75.75v3.5a.75.75 0 01-1.5 0v-3.5A.75.75 0 0110 5zm0 9a1 1 0 100-2 1 1 0 000 2z" clip-rule="evenodd" 
  /></symbol>
  <symbol id="lightbulb" viewBox="0 0 24 24" fill="currentColor"><path d="M12 .75a8.25 8.25 0 00-4.135 15.39c.686.398 1.115 1.008 1.134 1.623a.75.75 0 00.577.706c.352.083.71.148 1.074.195.323.041.6-.218.6-.544v-4.661a6.714 6.714 0 01-.937-.171.75.75 0 11.374-1.453 5.261 5.261 0 002.626 0 .75.75 0 11.374 1.452 6.712 6.712 0 01-.937.172v4.66c0 .327.277.586.6.545.364-.047.722-.112 1.074-.195a.75.75 0 00.577-.706c.02-.615.448-1.225 1.134-1.623A8.25 8.25 0 0012 .75z" 
  /><path fill-rule="evenodd" d="M9.013 19.9a.75.75 0 01.877-.597 11.319 11.319 0 004.22 0 .75.75 0 11.28 1.473 12.819 12.819 0 01-4.78 0 .75.75 0 01-.597-.876zM9.754 22.344a.75.75 0 01.824-.668 13.682 13.682 0 002.844 0 .75.75 0 11.156 1.492 15.156 15.156 0 01-3.156 0 .75.75 0 01-.668-.824z" clip-rule="evenodd"/></symbol>
  <symbol id="star" viewBox="0 0 24 24" fill="currentColor"><path fill-rule="evenodd" d="M10.788 3.21c.448-1.077 1.976-1.077 2.424 0l2.082 5.007 5.404.433c1.164.093 1.636 1.545.749 2.305l-4.117 3.527 1.257 5.273c.271 1.136-.964 2.033-1.96 1.425L12 18.354 7.373 21.18c-.996.608-2.231-.29-1.96-1.425l1.257-5.273-4.117-3.527c-.887-.76-.415-2.212.749-2.305l5.404-.433 2.082-5.006z" clip-rule="evenodd"/></symbol>
  <symbol id="arrow-right" fill="none" viewBox="0 0 24 24" stroke-width="1.5" stroke="currentColor"><path stroke-linecap="round" stroke-linejoin="round" d="M17.25 8.25L21 12m0 0l-3.75 3.75M21 12H3"/></symbol>
  <symbol id="share" viewBox="0 0 20 20" fill="currentColor"><path d="M12.232 4.232a2.5 2.5 0 013.536 3.536l-1.225 1.224a.75.75 0 001.061 1.06l1.224-1.224a4 4 0 00-5.656-5.656l-3 3a4 4 0 00.225 5.865.75.75 0 00.977-1.138 2.5 2.5 0 01-.142-3.667l3-3z" /><path d="M11.603 7.963a.75.75 0 00-.977 1.138 2.5 2.5 0 01.142 3.667l-3 3a2.5 2.5 0 01-3.536-3.536l1.225-1.224a.75.75 0 00-1.061-1.06l-1.224 1.224a4 4 0 105.656 5.656l3-3a4 4 0 00-.225-5.865z" /></symbol>
  <symbol id="moon" viewBox="0 0 24 24" fill="currentColor"><path fill-rule="evenodd" d="M9.528 1.718a.75.75 0 01.162.819A8.97 8.97 0 009 6a9 9 0 009 9 8.97 8.97 0 003.463-.69.75.75 0 01.981.98 10.503 10.503 0 01-9.694 6.46c-5.799 0-10.5-4.701-10.5-10.5 0-4.368 2.667-8.112 6.46-9.694a.75.75 0 01.818.162z" clip-rule="evenodd"/></symbol>
  <symbol id="sun" viewBox="0 0 24 24" fill="currentColor"><path d="M12 2.25a.75.75 0 01.75.75v2.25a.75.75 0 01-1.5 0V3a.75.75 0 01.75-.75zM7.5 12a4.5 4.5 0 119 0 4.5 4.5 0 01-9 0zM18.894 6.166a.75.75 0 00-1.06-1.06l-1.591 1.59a.75.75 0 101.06 1.061l1.591-1.59zM21.75 12a.75.75 0 01-.75.75h-2.25a.75.75 0 010-1.5H21a.75.75 0 01.75.75zM17.834 18.894a.75.75 0 001.06-1.06l-1.59-1.591a.75.75 0 10-1.061 1.06l1.59 1.591zM12 18a.75.75 0 01.75.75V21a.75.75 0 01-1.5 0v-2.25A.75.75 0 0112 18zM7.758 17.303a.75.75 0 00-1.061-1.06l-1.591 1.59a.75.75 0 001.06 1.061l1.591-1.59zM6 12a.75.75 0 01-.75.75H3a.75.75 0 010-1.5h2.25A.75.75 0 016 12zM6.697 7.757a.75.75 0 001.06-1.06l-1.59-1.591a.75.75 0 00-1.061 1.06l1.59 1.591z"/></symbol>
  <symbol id="computer" viewBox="0 0 20 20" fill="currentColor"><path fill-rule="evenodd" d="M2 4.25A2.25 2.25 0 014.25 2h11.5A2.25 2.25 0 0118 4.25v8.5A2.25 2.25 0 0115.75 15h-3.105a3.501 3.501 0 001.1 1.677A.75.75 0 0113.26 18H6.74a.75.75 0 01-.484-1.323A3.501 3.501 0 007.355 15H4.25A2.25 2.25 0 012 12.75v-8.5zm1.5 0a.75.75 0 01.75-.75h11.5a.75.75 0 01.75.75v7.5a.75.75 0 01-.75.75H4.25a.75.75 0 01-.75-.75v-7.5z" clip-rule="evenodd"/></symbol>
  <symbol id="refresh" viewBox="0 0 20 20" fill="currentColor"><path fill-rule="evenodd" d="M15.312 11.424a5.5 5.5 0 01-9.201 2.466l-.312-.311h2.433a.75.75 0 000-1.5H3.989a.75.75 0 00-.75.75v4.242a.75.75 0 001.5 0v-2.43l.31.31a7 7 0 0011.712-3.138.75.75 0 00-1.449-.39zm1.23-3.723a.75.75 0 00.219-.53V2.929a.75.75 0 00-1.5 0V5.36l-.31-.31A7 7 0 003.239 8.188a.75.75 0 101.448.389A5.5 5.5 0 0113.89 6.11l.311.31h-2.432a.75.75 0 000 1.5h4.243a.75.75 0 00.53-.219z" clip-rule="evenodd" /></symbol>
  <symbol id="export" viewBox="0 0 20 20" fill="currentColor"><path fill-rule="evenodd" d="M4.25 5.5a.75.75 0 00-.75.75v8.5c0 .414.336.75.75.75h8.5a.75.75 0 00.75-.75v-4a.75.75 0 011.5 0v4A2.25 2.25 0 0112.75 17h-8.5A2.25 2.25 0 012 14.75v-8.5A2.25 2.25 0 014.25 4h5a.75.75 0 010 1.5h-5z" clip-rule="evenodd" /><path fill-rule="evenodd" d="M6.194 12.753a.75.75 0 001.06.053L16.5 4.44v2.81a.75.75 0 001.5 0v-4.5a.75.75 0 00-.75-.75h-4.5a.75.75 0 000 1.5h2.553l-9.056 8.194a.75.75 0 00-.053 1.06z" clip-rule="evenodd" /></symbol>
  <symbol id="backward" viewBox="0 0 20 20" fill="currentColor"><path d="M7.712 4.819A1.5 1.5 0 0110 6.095v2.973c.104-.131.234-.248.389-.344l6.323-3.905A1.5 1.5 0 0119 6.095v7.81a1.5 1.5 0 01-2.288 1.277l-6.323-3.905a1.505 1.505 0 01-.389-.344v2.973a1.5 1.5 0 01-2.288 1.276l-6.323-3.905a1.5 1.5 0 010-2.553L7.712 4.82z" /></symbol>
  <symbol id="download" viewBox="0 0 20 20" fill="currentColor"><path d="M10.75 2.75a.75.75 0 00-1.5 0v8.614L6.295 8.235a.75.75 0 10-1.09 1.03l4.25 4.5a.75.75 0 001.09 0l4.25-4.5a.75.75 0 00-1.09-1.03l-2.955 3.129V2.75z" /><path d="M3.5 12.75a.75.75 0 00-1.5 0v2.5A2.75 2.75 0 004.75 18h10.5A2.75 2.75 0 0018 15.25v-2.5a.75.75 0 00-1.5 0v2.5c0 .69-.56 1.25-1.25 1.25H4.75c-.69 0-1.25-.56-1.25-1.25v-2.5z" /></symbol>
  <symbol id="list" viewBox="0 0 20 20" fill="currentColor"><path fill-rule="evenodd" d="M2 4.75A.75.75 0 012.75 4h14.5a.75.75 0 010 1.5H2.75A.75.75 0 012 4.75zM2 10a.75.75 0 01.75-.75h14.5a.75.75 0 010 1.5H2.75A.75.75 0 012 10zm0 5.25a.75.75 0 01.75-.75h14.5a.75.75 0 010 1.5H2.75a.75.75 0 01-.75-.75z" clip-rule="evenodd" /></symbol>
  <symbol id="masonry" viewBox="0 0 20 20" fill="currentColor"><path fill-rule="evenodd" d="M2.5 3A1.5 1.5 0 001 4.5v4A1.5 1.5 0 002.5 10h6A1.5 1.5 0 0010 8.5v-4A1.5 1.5 0 008.5 3h-6zm11 2A1.5 1.5 0 0012 6.5v7a1.5 1.5 0 001.5 1.5h4a1.5 1.5 0 001.5-1.5v-7A1.5 1.5 0 0017.5 5h-4zm-10 7A1.5 1.5 0 002 13.5v2A1.5 1.5 0 003.5 17h6a1.5 1.5 0 001.5-1.5v-2A1.5 1.5 0 009.5 12h-6z" clip-rule="evenodd" /></symbol>
  <symbol id="grid" viewBox="0 0 20 20" fill="currentColor"><path fill-rule="evenodd" d="M4.25 2A2.25 2.25 0 002 4.25v2.5A2.25 2.25 0 004.25 9h2.5A2.25 2.25 0 009 6.75v-2.5A2.25 2.25 0 006.75 2h-2.5zm0 9A2.25 2.25 0 002 13.25v2.5A2.25 2.25 0 004.25 18h2.5A2.25 2.25 0 009 15.75v-2.5A2.25 2.25 0 006.75 11h-2.5zm9-9A2.25 2.25 0 0011 4.25v2.5A2.25 2.25 0 0013.25 9h2.5A2.25 2.25 0 0018 6.75v-2.5A2.25 2.25 0 0015.75 2h-2.5zm0 9A2.25 2.25 0 0011 13.25v2.5A2.25 2.25 0 0013.25 18h2.5A2.25 2.25 0 0018 15.75v-2.5A2.25 2.25 0 0015.75 11h-2.5z" clip-rule="evenodd" /></symbol>
  <symbol id="self-hosting" xmlns="http://www.w3.org/2000/svg" fill="none" viewBox="0 0 50 50"><rect width="50" height="50" fill="var(--icon-bg, #FBF7E7)" rx="6"/><path stroke="currentColor" stroke-linecap="round" stroke-linejoin="round" stroke-width="3" d="M38.6 8H11.4A3.4 3.4 0 0 0 8 11.4v6.8a3.4 3.4 0 0 0 3.4 3.4h27.2a3.4 3.4 0 0 0 3.4-3.4v-6.8A3.4 3.4 0 0 0 38.6 8ZM38.6 28.4H11.4A3.4 3.4 0 0 0 8 31.8v6.8a3.4 3.4 0 0 0 3.4 3.4h27.2a3.4 3.4 0 0 0 3.4-3.4v-6.8a3.4 3.4 0 0 0-3.4-3.4ZM14.8 14.8h.017M14.8 35.2h.017"/></symbol>
  <symbol id="ai" xmlns="http://www.w3.org/2000/svg" viewBox="0 0 128 128"><path fill="#fdd835" d="m121.59 60.83l-13.93-4.49c-8.91-2.94-14.13-10.15-16.58-19.21L84.95 7.27c-.16-.59-.55-1.38-1.75-1.38c-1.01 0-1.59.79-1.75 1.38l-6.13 29.87c-2.46 9.06-7.67 16.27-16.58 19.21l-13.93 4.49c-1.97.64-2 3.42-.04 4.09l14.03 4.83c8.88 2.95 14.06 10.15 16.52 19.17l6.14 29.53c.16.59.49 1.65 1.75 1.65c1.33 0 1.59-1.06 1.75-1.65l6.14-29.53c2.46-9.03 7.64-16.23 16.52-19.17l14.03-4.83c1.94-.68 1.91-3.46-.06-4.1"/><path fill="#ffee58" d="M122.91 62.08c-.22-.55-.65-1.03-1.32-1.25l-13.93-4.49c-8.91-2.94-14.13-10.15-16.58-19.21L84.95 7.27c-.09-.34-.41-.96-.78-1.14l1.98 29.97c1.47 13.68 2.73 20.12 13.65 22c9.38 1.62 20.23 3.48 23.11 3.98"/><path fill="#f4b400" d="m122.94 63.64l-24.16 5.54c-8.51 2.16-13.2 7.09-13.2 19.99l-2.37 30.94c.81-.08 1.47-.52 1.75-1.65l6.14-29.53c2.46-9.03 7.64-16.23 16.52-19.17l14.03-4.83c.66-.24 1.08-.73 1.29-1.29"/><path fill="#fdd835" d="M41.81 86.81c-8.33-2.75-9.09-5.85-10.49-11.08l-3.49-12.24c-.21-.79-2.27-.79-2.49 0L22.97 74.8c-1.41 5.21-4.41 9.35-9.53 11.04l-8.16 3.54c-1.13.37-1.15 1.97-.02 2.35l8.22 2.91c5.1 1.69 8.08 5.83 9.5 11.02l2.37 10.82c.22.79 2.27.79 2.48 0l2.78-10.77c1.41-5.22 3.57-9.37 10.5-11.07l7.72-2.91c1.13-.39 1.12-1.99-.02-2.36z"/><path fill="#ffee58" d="M28.49 75.55c.85 7.86 1.28 10.04 7.65 11.67l13.27 2.59c-.14-.19-.34-.35-.61-.43l-7-2.57c-7.31-2.5-9.33-5.68-10.7-12.04s-2.83-10.51-2.83-10.51c-.51-1.37-1.24-1.3-1.24-1.3z"/><path fill="#f4b400" d="M28.73 102.99c0-7.41 4.05-11.08 10.49-11.08l10.02-.41s-.58.77-1.59 1.01l-6.54 2.13c-5.55 2.23-8.08 3.35-9.8 10.94c0 0-2.22 8.83-2.64 9.76c-.58 1.3-1.27 1.57-1.27 1.57z"/><path fill="#f4b400" stroke="#f4b400" stroke-miterlimit="10" d="M59.74 28.14c.56-.19.54-.99-.03-1.15l-7.72-2.08a4.77 4.77 0 0 1-3.34-3.3L45.61 9.06c-.15-.61-1.02-.61-1.17.01l-2.86 12.5a4.73 4.73 0 0 1-3.4 3.37l-7.67 1.99c-.57.15-.61.95-.05 1.15l8.09 2.8c1.45.5 2.57 1.68 3.01 3.15l2.89 11.59c.15.6 1.01.61 1.16 0l2.99-11.63a4.77 4.77 0 0 1 3.04-3.13z" stroke-width="1"/></symbol>
  <symbol id="hiking" viewBox="0 0 128 128"><path fill="#b9ce46" d="M65.03 92.69S4.8 111.08 4.67 112.41s24.11 12.02 64.62 11.46c38.64-.53 53.57-10.39 53.83-11.46S66.36 92.42 65.03 92.69"/><path fill="#9ea2a3" d="m62.26 42.15l-4.31-5.42s-6.96 7.3-8.84 9.29s-3.33 3.14-4.23 5.01c-1.29 2.67-5.38 25.72-5.38 25.72L27.67 88.9s-2.23-1.39-2.78-.94s-18.67 22.05-18.67 22.05l-1.56 2.39s3.6.8 4.71.69c.54-.05 3.2-.66 6.21-.97c3.17-.33 7.22-.06 7.67-.11c.51-.05 2.27-.57 2.27-.57l15.74-9.39l12.93-3.21l11.83 5.31l23.21 1.11l12.71-19.01l-27.63-36.59z"/><path fill="#717a7c" d="M28.55 97.77s-.43-1.23-.75-2.14s-.13-6.73-.13-6.73s7.21 4.26 8.01 4.96s7.94 5.15 7.94 5.15s5.09-.64 6.86-.75s4.83.05 4.83.05l-1.18 1.72s-11.53 3.75-13.57 4.4c-2.04.64-15.11 7.29-15.09 7.04c.04-.52 3.4-5.33 3.4-5.33z"/><path fill="#717a7c" d="m80.73 103.46l-49.26 7.78s-2.38 2.11-2.14 2.67s9.33 2.25 12.47 2.65s24.61 1.61 26.94 1.45s26.14-1.37 29.44-1.77s14.39-1.17 15.12-1.5c1.41-.64 7.88-4.13 7.88-4.13s-7.24-11.42-8.69-14.16c-1.45-2.73-3.86-7.64-5.55-9.33s-2.9-2.41-2.9-2.41s-2.28-5.3-4.94-8.68c-2.65-3.38-5.8-9.3-6.64-10.14c-3.19-3.18-3.77-3.03-3.77-3.03l2 24.1s-3.7 7.4-4.99 9.41c-1.27 2.03-4.97 7.09-4.97 7.09"/><path fill="#717a7c" d="m63.03 27.62l-.97 19.62l11.41 7.08s3.43 8.79 3.59 9.6c.16.8-.15 2.97.17 3.53s6.23 4.63 6.46 4.64c1.31.07 4.02-.4 3.86-.64s1.08-5.46 1.08-5.46s-7.84-12.71-9.53-16.25s-8.04-12.71-8.77-14.24s-4.18-6.6-4.91-7.4s-1.9-1.04-2.39-.48"/><path fill="#c0c0c0" d="M68.02 65.05s5.39-8.88 5.55-10.24s-4.34-9.65-5.47-12.63s-4.1-9.09-4.42-9.89s-.64-4.66-.64-4.66s-2.25 2.41-3.06 4.34c-.8 1.93-3.83 6.68-3.83 6.68s1.9 11.02 2.63 15.76c.72 4.75 1.26 10.98 1.15 11.21c-.69 1.4-5.33 12.68-5.33 12.68s-.6 5.47-.04 6.03s3.81 1.3 4.06.92c.49-.73.48-3.5.48-3.5s9.02-12.18 9.31-12.78c.11-.23-.39-3.92-.39-3.92m-18.38.87c-.03-1.21-1.8-6.95-2.12-8.24s-1-7.66-1.89-7.66c-.88 0-4.96 11.22-5.37 12.27c-.4 1.05-6.11 13.35-6.84 14.8c-.72 1.45-4.02 7.72-4.66 8.77s-1.49 2.83-1.49 2.83l16.34 10.33l5.9-.67s-3.45-9.27-4.26-11.36s-1.77-5.47-1.77-5.47s1.87-4.48 3.09-7.7c1.23-3.24 3.11-6.7 3.07-7.9M25.32 87.97c.04.15.25 3.92.14 6.17c-.11 2.26-.55 4.52-.55 4.52l-6.61 8.6s-11.96 4.63-12.68 4.85s-.95.3-.95.3s-1.5-.91 2.99-5.81c5.8-6.33 13.22-15 14.16-16.09c1.67-1.94 3.39-2.99 3.5-2.54"/><path fill="#367c2d" d="M39.8 90.59c-.68-.07-1.54 2.2-2 3.89c-.33 1.19-2.46 7.22-2.71 8.39c-.26 1.18-1.58 4.66-1.22 4.82c.36.15 3.15.35 4.64.04c1.48-.31 4.72-2.91 4.72-3.52s-1.4-6.93-1.53-7.68c-.36-2.15-.84-5.83-1.9-5.94m66.91 9.23c-.6-.25-2.13 6.52-2.45 8.91s-1.17 6.93-.95 7.38c.64 1.27 7.46.43 8.12-.66c.19-.31-.77-5.4-1.46-7.55c-.94-2.94-1.71-7.43-3.26-8.08m11.95-8.53c-.94.04-1.94 8.25-2.56 10.04c-.7 2.03-3.04 11.64-2.07 12.74s4.68.23 6.06-.17c1.33-.38 2.48-1.02 2.8-1.73s-.44-6.44-1.36-10.44c-.94-4.05-1.39-10.51-2.87-10.44"/><path fill="#c0c0c0" d="M31.47 111.25s2.59.98 11.46 1.53s13.23.5 13.23.5l20.26-2.96l4.6-7.28s-6.12-.23-9.37-.34s-8.1-.13-8.32-.73c-.22-.61 5.47-4.74 7.07-5.56c1.6-.83 5.46-1.27 6.34-2.2c.88-.94 12-7.21 13.37-7.26c1.38-.06 5.68 2.59 6.5 2.31c.83-.28-2.86-10.04-3.35-11.87c-.04-.16-1.99-9.67-2.05-9.85c-.46-1.41-1.87-5.07-2.76-4.63c-.88.44-2.37 3.8-3.47 7.16s-1.76 5.13-2.31 5.95s-6.94 4.91-7.83 5.84c-.88.94-3.53 2.92-5.13 3.58s-3.14.66-4.3 1.71s-2.59 2.87-4.19 4.57c-1.6 1.71-4.85 5.63-5.92 6.59s-2.03 1.89-2.03 1.89s-7.73 2.19-10.33 3.45c-2.58 1.27-12.14 7.43-11.47 7.6"/><path fill="#367c2d" d="M76.52 106.03c-.72.06-1.73 5.46-2.09 6.66c-.2.68-1.87 5.33-1.42 6.11c.9 1.6 8.3 1.17 8.63.33c.32-.84-2.11-6.46-2.56-7.5c-.46-1.02-1.5-5.69-2.56-5.6"/><path fill="#367c2d" d="M45.91 92.85c-.59.2-1.32 2.48-2.01 4.84c-.44 1.49-1.72 5.96-1.41 6.18s3.4.37 4.62-.38s2.11-1.4 2.27-1.84s-1.24-4.32-1.78-5.74c-.42-1.07-1.07-3.28-1.69-3.06"/></symbol>
  <symbol id="travel" viewBox="0 0 128 128"><path fill="#006ca8" d="M37.08 80.79S9.61 74.92 9.14 75.01s-5.97 5.59-5.78 6.44C3.55 82.31 27.61 95 27.61 95l6.91-7.29zm-3.79 19.42s13.35 23.11 13.92 23.11s6.72-4.74 6.72-5.21s-5.68-28.03-5.68-28.03l-9.76 1.14z"/><path fill="#9a9a9a" d="M22.79 25.78s-1.92 2.17-2.33 2.94s-.48 2.09.4 2.56s1.95.15 2.48-.44s3.14-3.8 3.14-3.8s-3.46-1.44-3.69-1.26m14.02 7.85s-1.55 1.84-2.18 2.68c-.61.81-.6 2.08.25 2.68c1.22.86 2.43-.1 3.09-.81c.61-.66 2.33-2.68 2.33-2.68zm13.27 7.14s-2.03 2.03-2.63 2.84c-.67.89-.82 2.19.1 2.89c1.01.76 2.13.41 3.04-.41c.91-.81 2.94-3.04 2.94-3.04zm35.03 34.28s-2.38 1.65-2.97 2.29c-.58.64-.97 1.92-.22 2.59c.74.67 1.86.61 2.52.17s3.96-2.93 3.96-2.93s-3.02-2.23-3.29-2.12m8.02 12.56s-1.97 1.38-2.79 2.03c-.8.63-1.11 1.86-.44 2.66c.95 1.14 2.38.53 3.19.01c.76-.48 2.94-2 2.94-2zm7.34 12.84s-2.45 1.48-3.24 2.12c-.86.71-1.32 1.93-.59 2.83c.8.98 1.97.9 3.05.34s3.58-2.24 3.58-2.24zm-43.2-76.72s-.35-2.33 1.54-4.96s8.16-8.77 9.13-8.82s3.29 1.18 5.62 3.47c2.22 2.17 3.25 4.96 3.29 5.62s-4.34 5-5.48 6.05s-4.21 4.47-4.21 4.47z"/><path fill="#c8c8c8" d="M60.13 24.08s7.68-9.39 9.74-7.98c2.08 1.42-6.23 9.48-6.23 9.48z"/><path fill="#848484" d="M58.37 23.48s4.35-4.41 4.83-5.11s.04-1.75-.35-2.33c-.39-.57-.99-.79-.99-.79s-3.07 2.75-4.12 5.16c-.82 1.87-.68 2.82-.68 2.82zm7.49 2.27s1.65-1.71 2.48-2.39c.75-.61 1.86-.55 2.52-.16c.85.5 1.05 1.36 1.05 1.36l-3.06 3.25z"/><path fill="#9a9a9a" d="M101.96 59.45s2.51-2.92 3.97-4.38c1.51-1.51 3.97-3.56 4.47-3.52c.5.05 2.71 1.39 4.79 3.52c2.37 2.42 3.84 5.43 3.88 5.71c.05.27-4.38 4.7-6.35 6.39c-1.41 1.21-10.18 4.79-10.18 4.34c.02-.46-.58-12.06-.58-12.06"/><path fill="#c8c8c8" d="M103.41 65.1s7.26-7.96 8.92-6.47s-8.31 10.45-8.31 10.45z"/><path fill="#848484" d="m102.87 63.1l2.65-2.92c.94-1.03.88-2.41.6-3.01c-.36-.77-1.29-.95-1.29-.95l-3.45 3.67zm2.51 6.61s4.16-3.75 4.87-4.34s1.86-1.01 2.77-.38c.68.47.98 1.04.98 1.04s-3.2 3.48-5.13 4.71c-1.21.77-4.07 1.21-4.07 1.21z"/><path fill="#006ca8" d="M11.65 8.92c-.98.08-7.19 7.42-7.41 7.96s0 1.42 1.53 2.18c1.52.76 44.47 23.44 45.13 23.98c.65.55 9.16 10.03 9.16 10.03s21.04-14.5 20.93-14.93c-.11-.44-.76-9.48-.76-9.48S13.07 8.81 11.65 8.92m61.38 56.91s12.86 11.66 13.95 13.08s23.33 41.97 23.66 42.62s1.74 1.2 2.51.44s6.54-5.78 6.65-6.98s-21.37-70.42-21.37-70.42l-16.57 6z"/><path fill="#014eac" d="M66.81 43.26s-10.14-9.81-10.9-10.36c-.76-.54-48.29-20.16-48.29-20.16l-1.95 2.15s48.18 20.35 48.95 20.89s10.2 10.2 10.2 10.2zM82.4 60.45s11.17 13.72 11.84 14.61s20.26 45.65 20.26 45.65l1.95-1.82S96.88 73.22 96.53 72.6S83.17 55.9 83.17 55.9z"/><path fill="#9a9a9a" d="M24.22 98.4s-4.18 5.98-4.18 6.45c0 .48 2.8 3.54 3.12 3.54s6.4-4.34 6.4-4.34l-.85-4.34z"/><path fill="#c8c8c8" d="M24.22 98.4s8.28-13.93 17.15-26.38c9.11-12.79 16.5-20.16 27.86-32.52C83.48 24 92.97 15.22 101.75 9.31c7.28-4.9 17.68-8.22 21.39-4.91c4.07 3.64-.42 15.12-4.99 21.66c-10.37 14.84-19.27 21.9-29.48 31.81c-10.07 9.77-18.58 18.25-29.12 26.16c-7.1 5.33-30 20.04-30 20.04z"/><path fill="#3b5361" d="m103.92 11.05l2.77 2.92s4.64-4.47 8.11-1.14c3.56 3.41-1.35 8.25-1.35 8.25l2.99 3.34s8.11-9.18 1.49-15.15c-5.76-5.2-14.01 1.78-14.01 1.78"/><path fill="#9a9a9a" d="M47.84 74c-1.29 1.24-16.53 19.28-17.38 20.35c-1.09 1.38-1.59 3.04-.36 4.06c1.23 1.01 2.56.01 3.77-.8c1.52-1.01 19.18-16.59 20.35-17.67c1.88-1.74 2.2-4.88.22-6.66c-2.18-1.96-4.64-1.16-6.6.72"/><path fill="#dfdfdf" d="M47.29 69.91c-.87-.75-1.95-.25-3.09.98c-.98 1.07-1.43 2.73-.45 3.4s2.28-.31 3.09-1.3c.81-.98 1.43-2.23.45-3.08m2.82-5.82c-.9 1.03-2.21 2.73-.98 3.94c1.21 1.19 3.04-.32 3.84-1.22c.79-.9 9.84-11.52 21.29-22.96c11.18-11.18 18.7-18.25 19.86-19.49c.98-1.05.89-2.72.03-3.25c-1.02-.63-2.15-.23-3.55 1.17S79.7 32.37 70.74 41.43S51.23 62.8 50.11 64.09"/><path fill="#3b5361" d="M105.47 41.61s-.55-3.72-2.86-2.26c-2.48 1.57-.63 5.83-.63 5.83s.93-.87 1.92-1.91c.82-.85 1.3-1.35 1.57-1.66m-8.87 8.75s-.39-4.77-3.01-2.81c-2.09 1.57-.67 6.26-.67 6.26s1.2-1.09 1.98-1.83c.79-.75 1.7-1.62 1.7-1.62m-8.46 8.02s-.3-3.96-2.65-2.65s-.78 5.99-.78 5.99s1.04-.94 1.74-1.64s1.69-1.7 1.69-1.7m-9.58 9.26s-.18-3.94-2.49-2.89c-2.4 1.09-.96 6.14-.96 6.14s1.17-1.09 1.82-1.7c.66-.6 1.63-1.55 1.63-1.55"/></symbol>
  <symbol id="rss" xmlns="http://www.w3.org/2000/svg" viewBox="0 0 20 20" fill="currentColor"><path d="M3.75 3a.75.75 0 0 0-.75.75v.5c0 .414.336.75.75.75H4c6.075 0 11 4.925 11 11v.25c0 .414.336.75.75.75h.5a.75.75 0 0 0 .75-.75V16C17 8.82 11.18 3 4 3h-.25Z" /><path d="M3 8.75A.75.75 0 0 1 3.75 8H4a8 8 0 0 1 8 8v.25a.75.75 0 0 1-.75.75h-.5a.75.75 0 0 1-.75-.75V16a6 6 0 0 0-6-6h-.25A.75.75 0 0 1 3 9.25v-.5ZM7 15a2 2 0 1 1-4 0 2 2 0 0 1 4 0Z" /></symbol>
</svg>